<svg width="234" height="46" viewBox="0 0 234 46" fill="none" xmlns="http://www.w3.org/2000/svg">
<g clip-path="url(#clip0_11962_19527)">
<path fill-rule="evenodd" clip-rule="evenodd" d="M127.714 0.0642388C123.362 0.496463 120.232 2.50854 119.249 5.53411C118.787 6.90531 118.712 8.15726 118.98 9.45394C119.681 12.7627 121.529 14.1488 127.625 15.9522C131.873 17.2042 132.782 17.8301 132.782 19.559C132.782 20.3043 132.737 20.4235 132.215 20.9302C131.53 21.6158 130.844 21.8245 129.205 21.8245C126.805 21.8245 123.929 20.811 121.32 19.0672L119.681 17.9792L118.429 20.498L117.162 23.0168L118.369 23.8217C120.024 24.9097 121.365 25.5506 123.318 26.1914C125.672 26.9665 126.597 27.1006 129.279 27.1006C131.962 27.1006 132.916 26.9218 134.809 26.1318C137.775 24.8948 139.459 22.6591 139.727 19.6038C139.832 18.4561 139.519 16.7868 139.012 15.7286C138.147 13.9252 135.807 12.3603 132.364 11.3021C126.477 9.49865 125.777 9.08133 125.777 7.27791C125.777 6.68174 125.851 6.51779 126.284 6.11538C127.282 5.1615 128.713 5.05717 131.306 5.71296C133.154 6.175 134.511 6.66684 136.12 7.47167C136.687 7.75485 137.193 7.9337 137.253 7.85918C137.313 7.79956 137.879 6.66684 138.505 5.35526C139.802 2.59797 139.876 2.92586 137.775 1.91237C134.854 0.526272 130.74 -0.233847 127.714 0.0642388Z" fill="#0073ED"/>
<path fill-rule="evenodd" clip-rule="evenodd" d="M42.3132 0.168128C42.03 0.197937 41.1208 0.361884 40.316 0.525831C33.0725 2.03116 28.631 8.38039 29.7041 15.6984C30.1811 18.873 31.3585 21.1832 33.6091 23.3294C35.9043 25.5054 38.9001 26.8468 42.1492 27.1598L43.2521 27.2641L43.8632 28.2925C45.1748 30.5282 47.321 32.2869 49.4374 32.883C50.6596 33.2109 52.7462 33.2407 54.2664 32.9277C55.4587 32.6893 58.0223 31.4969 58.842 30.7964L59.3488 30.3642L58.2458 28.4117C57.6348 27.3386 57.0833 26.4444 57.0088 26.4444C56.9343 26.4444 56.6511 26.6083 56.3679 26.8319C55.6525 27.3684 54.1323 28.054 53.2529 28.218C52.4481 28.367 51.5389 28.2329 50.7937 27.8603C50.3019 27.592 49.3182 26.653 49.3182 26.4295C49.3182 26.3401 49.7057 26.1165 50.1677 25.9078C58.5886 22.1818 60.7199 10.7502 54.2217 4.2519C51.3302 1.34557 46.5907 -0.279 42.3132 0.168128ZM45.2046 5.80195C48.7816 6.47264 51.2557 9.64725 51.2706 13.5373C51.2706 15.1618 51.0918 15.9965 50.436 17.4273C49.7206 18.9922 48.5431 20.1846 46.9782 20.9596L45.6964 21.6005H41.9107L40.6141 20.9447C37.6928 19.4692 36.0235 16.4436 36.262 13.0752C36.3813 11.4507 36.7539 10.3329 37.6034 9.05108C38.7361 7.32218 40.316 6.24908 42.343 5.80195C43.58 5.53367 43.8632 5.53367 45.2046 5.80195Z" fill="#0073ED"/>
<path fill-rule="evenodd" clip-rule="evenodd" d="M166.556 0.228208C160.714 0.988326 156.361 4.35669 154.603 9.46886C154.036 11.168 154.036 11.1829 154.021 13.5526C154.021 16.0864 154.081 16.459 154.946 18.7691C155.795 21.0644 157.912 23.5534 160.207 24.9842C161.444 25.7593 163.516 26.6088 164.902 26.9069C166.049 27.1603 169.954 27.1603 171.236 26.9069C173.486 26.4598 177.183 25.014 178.584 24.0304L178.986 23.7472V13.4781H173.323V20.349L172.354 20.7961C168.911 22.3611 165.349 21.8096 162.934 19.3504C160.102 16.459 159.879 11.5853 162.457 8.45537C165.304 4.98268 170.55 4.7144 174.783 7.8443C175.215 8.17219 175.603 8.41066 175.633 8.38085C176.527 7.36736 179.135 4.16294 179.135 4.07351C179.135 3.80524 177.242 2.55328 175.782 1.83787C174.098 1.01814 172.726 0.615719 170.565 0.287825C168.941 0.0493564 168.121 0.0344521 166.556 0.228208Z" fill="#0073ED"/>
<path fill-rule="evenodd" clip-rule="evenodd" d="M61.585 9.11075C61.6297 17.8298 61.6446 18.0533 61.9725 19.2009C63.2692 23.7766 66.8164 26.5488 71.9733 27.0704C78.6355 27.7411 83.5688 24.8497 85.253 19.2904C85.5958 18.1875 85.5958 18.0235 85.6554 9.18527L85.7001 0.212891L82.451 0.242699L79.2019 0.287412L79.1274 8.9319C79.0528 17.5317 79.0528 17.5764 78.71 18.4259C78.2629 19.5437 77.2792 20.6169 76.1912 21.1534C75.3864 21.5707 75.2075 21.6005 73.6873 21.6005C72.1671 21.6005 72.018 21.5856 71.1088 21.0938C69.9463 20.4678 68.9626 19.3947 68.5155 18.2769C68.1727 17.4273 68.1727 17.3677 68.0982 8.85738L68.0237 0.287412L64.7745 0.242699L61.5254 0.212891L61.585 9.11075Z" fill="#0073ED"/>
<path fill-rule="evenodd" clip-rule="evenodd" d="M11.1186 0.913763C10.9845 1.22675 10.2541 2.92584 9.50893 4.68455C8.74881 6.44325 7.80984 8.66399 7.40743 9.60296C6.99011 10.5419 6.49827 11.7194 6.28961 12.2112C6.09585 12.7031 5.69344 13.6122 5.42516 14.2233C5.15688 14.8344 4.35205 16.7123 3.63665 18.3965C2.90634 20.0807 1.99717 22.2269 1.59476 23.1659C1.19234 24.1048 0.655789 25.327 0.432224 25.8933L0 26.8919L3.36837 26.8621L6.72183 26.8174L7.61609 24.5818C8.10793 23.3447 8.56996 22.2567 8.65939 22.1524C8.77862 22.0182 10.1349 21.9735 14.5019 21.9735C17.6169 21.9735 20.2549 22.0331 20.3443 22.0928C20.4338 22.1524 20.8958 23.2404 21.3876 24.5072L22.2819 26.8174L25.7397 26.8621C27.6325 26.877 29.1975 26.8472 29.1975 26.7727C29.1975 26.7131 28.8249 25.789 28.3629 24.7308C27.9157 23.6577 27.3792 22.3908 27.1854 21.899C26.9917 21.4072 26.4849 20.1999 26.0676 19.2162C25.6503 18.2325 25.0094 16.7272 24.6517 15.8628C24.3089 14.9983 23.7425 13.6569 23.4146 12.8819C20.7319 6.47306 19.2414 2.91094 18.7794 1.77821L18.2279 0.436826L14.785 0.392113L11.3571 0.362305L11.1186 0.913763ZM15.6942 9.70729C16.2606 11.1679 17.0654 13.2694 17.5125 14.3872C17.9597 15.5051 18.3174 16.5633 18.3174 16.7421C18.3174 17.0551 18.2876 17.0551 14.5168 17.0551C11.372 17.0551 10.7162 17.0253 10.7162 16.8464C10.7162 16.7272 11.059 15.7435 11.4763 14.6555C13.0263 10.6314 13.2201 10.1097 13.6672 9.00679C13.9206 8.39571 14.1889 7.71012 14.2783 7.47165C14.3677 7.24808 14.487 7.06923 14.5615 7.06923C14.636 7.06923 15.1428 8.26157 15.6942 9.70729Z" fill="#0073ED"/>
<path fill-rule="evenodd" clip-rule="evenodd" d="M98.517 0.76472C98.2785 1.25656 94.1053 10.9592 93.1664 13.18C92.8087 14.0444 92.2572 15.3411 91.9442 16.0863C91.6312 16.8166 90.4985 19.4696 89.4105 21.9735C88.3374 24.4774 87.4133 26.6087 87.3686 26.6982C87.309 26.8472 88.0244 26.8919 90.6326 26.8919H93.9861L94.3736 25.953C94.5972 25.4462 95.0145 24.388 95.2977 23.613C95.5958 22.838 95.9088 22.1524 96.0131 22.0928C96.1174 22.0331 98.7555 21.9735 101.885 21.9735H107.594L107.787 22.3014C107.907 22.4952 108.354 23.5981 108.801 24.7606L109.606 26.8919H113.064C114.971 26.8919 116.536 26.8621 116.536 26.8472C116.536 26.7727 115.627 24.5967 113.779 20.185C111.916 15.7733 111.26 14.1935 110.277 11.8386C109.457 9.85633 108.056 6.53268 106.625 3.1196C106.073 1.80802 105.597 0.645486 105.552 0.541156C105.492 0.407018 104.658 0.362305 102.094 0.362305H98.6959L98.517 0.76472ZM102.183 7.62069C103.167 9.94576 105.656 16.608 105.656 16.8912C105.656 17.0104 104.523 17.0551 101.826 17.0253C98.0699 16.9806 97.9805 16.9806 98.0252 16.6825C98.055 16.5185 98.4574 15.4454 98.9045 14.2978C101.93 6.57739 101.736 7.06923 101.87 7.06923C101.915 7.06923 102.049 7.32261 102.183 7.62069Z" fill="#0073ED"/>
<path fill-rule="evenodd" clip-rule="evenodd" d="M143.662 13.6271V26.8919H146.941H150.22L150.19 13.6569L150.145 0.436826L146.911 0.392113L143.662 0.362305V13.6271Z" fill="#0073ED"/>
<path fill-rule="evenodd" clip-rule="evenodd" d="M183.904 13.6271V26.8919H187.183H190.462L190.492 21.7052L190.537 16.5335H196.051H201.566L201.611 21.7052L201.64 26.8919H204.919H208.198V13.6271V0.362305L204.964 0.392113L201.715 0.436826L201.64 5.87689L201.566 11.317H196.051H190.537L190.462 5.87689L190.388 0.436826L187.153 0.392113L183.904 0.362305V13.6271Z" fill="#0073ED"/>
<path fill-rule="evenodd" clip-rule="evenodd" d="M211.358 3.00036L211.403 5.65333L215.352 5.72785L219.302 5.80237L219.347 16.3397L219.376 26.8919H222.581H225.785L225.815 16.3397L225.86 5.80237L229.854 5.75766L233.834 5.72785V3.04508V0.362305H222.581H211.328L211.358 3.00036Z" fill="#0073ED"/>
<path fill-rule="evenodd" clip-rule="evenodd" d="M62.539 37.6229C60.3928 38.0104 59.1856 39.7244 59.3346 42.2283C59.424 43.7485 59.9755 44.7918 61.0188 45.4476C61.6597 45.85 61.8982 45.8948 63.1203 45.9395C63.8655 45.9693 64.8641 45.9246 65.3261 45.8202L66.1608 45.6563V41.647H64.7449C63.8009 41.647 63.329 41.7712 63.329 42.0196C63.329 42.3773 63.3588 42.3923 64.2977 42.3923H65.2665V43.7187C65.2665 45.2539 65.3112 45.2241 63.5823 45.2241C61.3318 45.2241 60.3034 44.1808 60.2885 41.8706C60.2736 40.3802 60.676 39.4412 61.5852 38.845C62.3453 38.3383 63.9848 38.2042 65.0132 38.5619C65.6689 38.7854 65.6838 38.7854 65.8478 38.4277C65.9372 38.2191 66.0117 38.0402 66.0117 38.0104C66.0117 37.9806 65.7584 37.8912 65.4603 37.8017C64.6107 37.5633 63.3439 37.4887 62.539 37.6229Z" fill="#0073ED"/>
<path fill-rule="evenodd" clip-rule="evenodd" d="M152.754 37.6077C151.547 37.861 150.965 38.5019 150.965 39.5899C150.965 40.9015 151.413 41.3785 153.365 42.1684C154.587 42.6453 155.049 43.1074 155.049 43.8377C155.049 44.255 154.945 44.4636 154.557 44.8064C154.066 45.2536 154.036 45.2536 152.769 45.1791C152.068 45.1343 151.338 45.0598 151.159 45.0002C150.861 44.9108 150.816 44.9406 150.816 45.2834C150.816 45.5666 150.921 45.7156 151.204 45.8199C151.711 46.0137 153.976 46.0137 154.498 45.805C155.556 45.4175 156.137 44.3295 155.884 43.2266C155.705 42.4218 155.258 42.0342 153.812 41.4232C152.232 40.7674 151.86 40.4395 151.86 39.6794C151.86 38.7851 152.366 38.3678 153.454 38.3678C153.931 38.3678 154.572 38.4423 154.885 38.5317C155.526 38.7106 155.511 38.7106 155.645 38.2635C155.735 37.9952 155.66 37.9207 155.258 37.8014C154.542 37.5779 153.35 37.4884 152.754 37.6077Z" fill="#0073ED"/>
<path fill-rule="evenodd" clip-rule="evenodd" d="M161.697 37.6077C159.894 37.9803 158.865 39.5006 158.865 41.7958C158.865 44.5084 160.177 45.969 162.606 45.969C164.067 45.969 165.051 45.507 165.706 44.5233C166.943 42.6603 166.571 39.3814 164.976 38.2337C164.082 37.5928 162.904 37.3693 161.697 37.6077ZM164.037 38.6212C165.155 39.1429 165.751 40.9165 165.408 42.7348C165.095 44.4786 164.261 45.2238 162.636 45.2238C161.011 45.2238 159.998 44.2103 159.819 42.2281C159.655 40.5588 160.236 39.128 161.28 38.6212C161.921 38.2933 163.366 38.2933 164.037 38.6212Z" fill="#0073ED"/>
<path fill-rule="evenodd" clip-rule="evenodd" d="M202.519 37.668C202.146 37.7724 201.624 38.0108 201.371 38.2046C200.045 39.1436 199.508 41.722 200.238 43.7639C200.76 45.2394 201.908 45.9697 203.711 45.9697C206.319 45.9548 207.556 44.4346 207.422 41.4388C207.348 39.9931 207.139 39.382 206.424 38.6219C205.559 37.6829 203.905 37.2805 202.519 37.668ZM204.963 38.5325C206.349 39.2479 206.945 41.3494 206.334 43.3764C205.977 44.6134 205.097 45.2245 203.711 45.2245C202.772 45.2245 202.101 44.9413 201.595 44.3452C201.088 43.7341 200.894 43.0187 200.894 41.722C200.909 39.4715 201.833 38.3685 203.696 38.3685C204.218 38.3685 204.784 38.4431 204.963 38.5325Z" fill="#0073ED"/>
<path fill-rule="evenodd" clip-rule="evenodd" d="M222.671 37.6228C221.523 37.906 220.793 38.8897 220.957 39.933C221.121 41.0508 221.597 41.483 223.431 42.1835C223.997 42.3922 224.578 42.735 224.742 42.9436C225.175 43.4951 225.145 44.3297 224.653 44.7918C224.31 45.1047 224.131 45.1495 223.058 45.1495C222.387 45.1495 221.612 45.0898 221.359 45.0302C220.897 44.911 220.867 44.9259 220.867 45.2836C220.867 45.8201 221.329 45.9692 222.909 45.9692C224.951 45.9692 225.8 45.3879 225.89 43.9124C225.964 42.8095 225.637 42.258 224.638 41.796C222.164 40.6633 222.089 40.6036 221.91 40.0969C221.717 39.4858 221.896 38.9344 222.432 38.5767C222.73 38.3829 223.028 38.3531 223.893 38.4127C224.474 38.4574 225.085 38.517 225.249 38.5469C225.413 38.5767 225.562 38.4723 225.651 38.2637C225.756 37.9656 225.711 37.906 225.219 37.7867C224.355 37.5483 223.222 37.4737 222.671 37.6228Z" fill="#0073ED"/>
<path fill-rule="evenodd" clip-rule="evenodd" d="M8.62891 41.7962V45.9694H9.00151H9.37412V41.7962V37.623H9.00151H8.62891V41.7962Z" fill="#0073ED"/>
<path fill-rule="evenodd" clip-rule="evenodd" d="M13.3984 41.7962V45.9694H14.1437L14.1735 42.452L14.2182 38.9346L16.4985 42.452C18.7491 45.9098 18.7938 45.9694 19.3005 45.9694H19.8073V37.623H19.0621L19.0323 41.1554L18.9875 44.6877L16.6923 41.1554C14.4566 37.7125 14.3821 37.623 13.8903 37.623H13.3984V41.7962Z" fill="#0073ED"/>
<path fill-rule="evenodd" clip-rule="evenodd" d="M22.6387 37.9957C22.6387 38.3683 22.6536 38.3683 23.9801 38.3683H25.3214V45.9694H26.2157V38.3683H27.5571C28.8836 38.3683 28.8985 38.3683 28.8985 37.9957V37.623H22.6387V37.9957Z" fill="#0073ED"/>
<path fill-rule="evenodd" clip-rule="evenodd" d="M31.7305 41.7962V45.9694H33.9661H36.2018V45.5223V45.0752H34.4132H32.6247V43.5102V41.9453H34.3387H36.0527V41.5727V41.2001H34.3387H32.6247V39.7842V38.3683H34.4132H36.2018V37.9957V37.623H33.9661H31.7305V41.7962Z" fill="#0073ED"/>
<path fill-rule="evenodd" clip-rule="evenodd" d="M39.7793 41.7962V45.9694H42.0149H44.2506V45.5223V45.0752H42.4621H40.6736V41.3491V37.623H40.2264H39.7793V41.7962Z" fill="#0073ED"/>
<path fill-rule="evenodd" clip-rule="evenodd" d="M47.3809 41.7962V45.9694H49.6165H51.8521V45.5223V45.0752H50.0636H48.2751V41.3491V37.623H47.828H47.3809V41.7962Z" fill="#0073ED"/>
<path fill-rule="evenodd" clip-rule="evenodd" d="M54.9824 41.7962V45.9694H55.4296H55.8767V41.7962V37.623H55.4296H54.9824V41.7962Z" fill="#0073ED"/>
<path fill-rule="evenodd" clip-rule="evenodd" d="M69.7363 41.7962V45.9694H72.0465H74.3567V45.5223V45.0752H72.4936H70.6306V43.5102V41.9453H72.3446H74.0586V41.5727V41.2001H72.3446H70.6157L70.6604 39.814L70.7051 38.4428L72.5383 38.3981L74.3567 38.3534V37.9957V37.623H72.0465H69.7363V41.7962Z" fill="#0073ED"/>
<path fill-rule="evenodd" clip-rule="evenodd" d="M77.7852 41.7816V45.9697H78.5304L78.5602 42.4374L78.6049 38.8902L80.9151 42.4374C83.1507 45.8654 83.2401 45.9697 83.7021 45.9697H84.194V37.6233H83.4488L83.419 41.1258L83.3743 44.6134L81.1237 41.1556C78.9179 37.7723 78.8434 37.6978 78.3217 37.6531L77.7852 37.6084V41.7816Z" fill="#0073ED"/>
<path fill-rule="evenodd" clip-rule="evenodd" d="M87.0254 37.9957C87.0254 38.3683 87.0403 38.3683 88.3668 38.3683H89.7082V45.9694H90.6024L90.6322 42.1987L90.6769 38.4428L91.9885 38.3981C93.2554 38.3534 93.2852 38.3534 93.2852 37.9957V37.623H87.0254V37.9957Z" fill="#0073ED"/>
<path fill-rule="evenodd" clip-rule="evenodd" d="M99.7695 37.8022C99.7993 37.9065 100.276 39.6652 100.813 41.722C101.349 43.7639 101.826 45.5673 101.871 45.7014C101.975 46.0591 102.78 46.0591 102.884 45.7014C103.302 44.3004 104.748 39.2628 104.807 39.0392C104.882 38.6517 104.837 38.5176 106.044 42.5864L107.043 45.9846L107.49 45.9399L107.937 45.8952L108.936 42.1691C109.487 40.1123 109.979 38.2493 110.039 38.0257C110.128 37.6233 110.113 37.6084 109.651 37.6531L109.174 37.6978L108.31 41.1258C107.848 43.0037 107.46 44.5836 107.445 44.6283C107.43 44.673 107.266 44.0918 107.073 43.3615C106.879 42.6162 106.432 41.0513 106.059 39.8589L105.403 37.6978L104.897 37.6531L104.39 37.6084L103.719 39.8888C103.361 41.1407 102.914 42.7355 102.75 43.436C102.542 44.2408 102.393 44.5985 102.348 44.4048C102.303 44.2408 101.901 42.646 101.469 40.8575L100.664 37.6233H100.187C99.8738 37.6233 99.7248 37.6829 99.7695 37.8022Z" fill="#0073ED"/>
<path fill-rule="evenodd" clip-rule="evenodd" d="M113.854 41.0808C113.093 42.9885 112.348 44.8814 112.199 45.2689L111.916 45.9843L112.378 45.9396C112.825 45.8949 112.885 45.8204 113.347 44.628L113.824 43.3611H117.326L117.818 44.628C118.265 45.8055 118.325 45.8949 118.757 45.9396C119.01 45.9694 119.219 45.9396 119.204 45.8651C119.204 45.8055 118.474 43.9275 117.595 41.7217C115.478 36.3561 115.702 36.4009 113.854 41.0808ZM116.298 40.6039C116.656 41.5428 116.909 42.3626 116.879 42.4222C116.76 42.6308 114.301 42.5563 114.301 42.3626C114.301 42.0943 115.553 38.6663 115.612 38.7855C115.642 38.8452 115.94 39.6649 116.298 40.6039Z" fill="#0073ED"/>
<path fill-rule="evenodd" clip-rule="evenodd" d="M120.859 37.9957C120.859 38.3683 120.874 38.3683 122.201 38.3683H123.542V45.9694H124.436L124.466 42.1987L124.511 38.4428L125.823 38.3981C127.089 38.3534 127.119 38.3534 127.119 37.9957V37.623H120.859V37.9957Z" fill="#0073ED"/>
<path fill-rule="evenodd" clip-rule="evenodd" d="M129.951 41.7962V45.9694H132.261H134.572V45.5223V45.0752H132.708H130.845V43.5102V41.9453H132.559H134.273V41.5727V41.2001H132.559H130.831L130.875 39.814L130.92 38.4428L132.753 38.3981L134.572 38.3534V37.9957V37.623H132.261H129.951V41.7962Z" fill="#0073ED"/>
<path fill-rule="evenodd" clip-rule="evenodd" d="M137.998 41.7809V45.969H138.877L138.922 44.2103L138.967 42.4665H140.755L141.739 44.1805C142.708 45.8348 142.753 45.8945 143.289 45.9392C143.587 45.969 143.811 45.9392 143.766 45.8647C143.721 45.805 143.215 44.9555 142.633 43.9718C142.037 43.003 141.575 42.1982 141.605 42.1833C142.112 41.9597 142.618 41.5722 142.887 41.1996C143.319 40.5587 143.334 39.3962 142.916 38.7106C142.44 37.9207 141.873 37.7269 139.831 37.6524L137.998 37.5928V41.7809ZM141.158 38.5168C142.156 38.8 142.603 39.8284 142.141 40.827C141.873 41.4232 141.292 41.6467 140.01 41.6467H138.892V38.3678H139.757C140.219 38.3678 140.86 38.4423 141.158 38.5168Z" fill="#0073ED"/>
<path fill-rule="evenodd" clip-rule="evenodd" d="M169.895 41.7962V45.9694H172.205H174.515V45.5223V45.0752H172.652H170.789V41.3491V37.623H170.342H169.895V41.7962Z" fill="#0073ED"/>
<path fill-rule="evenodd" clip-rule="evenodd" d="M177.494 40.738C177.494 44.0617 177.554 44.4343 178.21 45.1348C178.776 45.731 179.432 45.9694 180.55 45.9694C182.085 45.9694 182.979 45.4925 183.471 44.4045C183.709 43.8828 183.754 43.391 183.754 40.7082V37.623H182.86V40.6039C182.86 43.9574 182.755 44.4194 181.936 44.9261C181.533 45.1795 181.25 45.2242 180.43 45.1944C179.536 45.1497 179.372 45.0901 178.94 44.6579L178.463 44.1809L178.418 40.902L178.373 37.623H177.494V40.738Z" fill="#0073ED"/>
<path fill-rule="evenodd" clip-rule="evenodd" d="M186.438 37.9957C186.438 38.3683 186.452 38.3683 187.779 38.3683H189.12V45.9694H190.015L190.044 42.1987L190.089 38.4428L191.401 38.3981C192.667 38.3534 192.697 38.3534 192.697 37.9957V37.623H186.438V37.9957Z" fill="#0073ED"/>
<path fill-rule="evenodd" clip-rule="evenodd" d="M195.529 41.7962V45.9694H195.976H196.424V41.7962V37.623H195.976H195.529V41.7962Z" fill="#0073ED"/>
<path fill-rule="evenodd" clip-rule="evenodd" d="M211.029 41.7962V45.9694H211.775L211.804 42.452L211.849 38.9346L214.129 42.452C216.38 45.9098 216.425 45.9694 216.931 45.9694H217.438V37.623H216.693L216.663 41.1554L216.618 44.6877L214.323 41.1554C212.087 37.7125 212.013 37.623 211.521 37.623H211.029V41.7962Z" fill="#0073ED"/>
</g>
<defs>
<clipPath id="clip0_11962_19527">
<rect width="233.833" height="45.9842" fill="white"/>
</clipPath>
</defs>
</svg>
