<svg width="145" height="36" viewBox="0 0 145 36" fill="none" xmlns="http://www.w3.org/2000/svg">
<path id="Vector" d="M34.2928 17.153C34.2928 23.4059 30.9457 28.8753 25.9471 31.873C25.7558 31.987 25.5112 31.9503 25.3586 31.7884L19.6041 25.6624C19.3669 25.4105 19.4699 24.9985 19.7972 24.8864C23.0101 23.7847 25.32 20.7392 25.32 17.153C25.32 12.5921 21.5848 8.90475 17.0073 8.98015C12.5255 9.05555 8.97422 12.8054 8.97422 17.2873V31.4077C8.97422 31.7811 8.56594 32.0073 8.24594 31.8123C3.35951 28.8385 0.0767501 23.4905 0.00134778 17.37C-0.116353 7.95578 7.49008 0.136002 16.9043 0.00542749C26.4878 -0.126986 34.2965 7.60083 34.2965 17.153H34.2928ZM93.8625 23.2257C94.3443 24.1103 94.5853 25.0923 94.5853 26.17C94.5853 27.2477 94.3443 28.2298 93.8625 29.1144C93.3807 29.999 92.7333 30.6887 91.9204 31.1852C91.1076 31.6818 90.2266 31.93 89.2777 31.93C88.7315 31.93 88.2312 31.851 87.7788 31.6928C87.3264 31.5346 86.9549 31.3544 86.668 31.1539C86.3793 30.9516 86.1641 30.7659 86.0207 30.593H85.914V35.0546C85.914 35.176 85.8147 35.2753 85.6933 35.2753H83.4772C83.3558 35.2753 83.2565 35.176 83.2565 35.0546V20.8238C83.2565 20.7025 83.3558 20.6031 83.4772 20.6031H85.4579C85.5793 20.6031 85.6786 20.7025 85.6786 20.8238V21.8556H85.7853C85.9728 21.6404 86.2248 21.427 86.5411 21.2192C86.8574 21.0114 87.2455 20.8238 87.7071 20.6583C88.1669 20.4928 88.6928 20.41 89.2813 20.41C90.2303 20.41 91.1112 20.6583 91.9241 21.1549C92.737 21.6514 93.3843 22.3411 93.8662 23.2257H93.8625ZM91.9112 26.1719C91.9112 25.5392 91.7788 24.9709 91.5121 24.467C91.2455 23.9631 90.8795 23.5714 90.4124 23.2919C89.9453 23.0123 89.4524 22.8707 88.9338 22.8707C88.3728 22.8707 87.8616 23.0105 87.4018 23.2919C86.942 23.5732 86.5779 23.965 86.3131 24.467C86.0464 24.9709 85.914 25.5392 85.914 26.1719C85.914 26.8045 86.0464 27.3912 86.3131 27.8877C86.5797 28.3843 86.942 28.7723 87.4018 29.0519C87.8616 29.3333 88.3728 29.473 88.9338 29.473C89.4524 29.473 89.9434 29.3333 90.4124 29.0519C90.8795 28.7705 91.2455 28.3824 91.5121 27.8877C91.7788 27.3912 91.9112 26.8192 91.9112 26.1719ZM64.4299 26.1645C64.4299 29.3461 61.8496 31.9264 58.668 31.9264C55.4864 31.9264 52.9062 29.3461 52.9062 26.1645C52.9062 22.9829 55.4864 20.4027 58.668 20.4027C61.8496 20.4027 64.4299 22.9829 64.4299 26.1645ZM61.9048 26.1645C61.9048 24.3769 60.4556 22.9277 58.668 22.9277C56.8804 22.9277 55.4312 24.3769 55.4312 26.1645C55.4312 27.9521 56.8804 29.4013 58.668 29.4013C60.4556 29.4013 61.9048 27.9521 61.9048 26.1645ZM120.023 16.3843C119.72 16.3843 119.444 16.4523 119.2 16.5903C118.953 16.7282 118.765 16.9121 118.635 17.1438C118.504 17.3756 118.44 17.6275 118.44 17.9034C118.44 18.3374 118.593 18.7015 118.896 18.9995C119.2 19.2955 119.575 19.4445 120.023 19.4445C120.312 19.4445 120.577 19.3801 120.814 19.2496C121.053 19.119 121.241 18.9351 121.379 18.696C121.517 18.4569 121.585 18.1939 121.585 17.9052C121.585 17.4859 121.436 17.1291 121.14 16.8312C120.844 16.5351 120.47 16.3861 120.023 16.3861V16.3843ZM121.149 20.6068H118.88C118.758 20.6068 118.659 20.7061 118.659 20.8275V31.5089C118.659 31.6303 118.758 31.7296 118.88 31.7296H121.149C121.27 31.7296 121.37 31.6303 121.37 31.5089V20.8275C121.37 20.7061 121.27 20.6068 121.149 20.6068ZM143.595 26.6831C143.201 26.2234 142.738 25.8813 142.206 25.6588C141.673 25.4362 141 25.2229 140.185 25.0224C139.624 24.879 139.2 24.7521 138.913 24.6454C138.626 24.5369 138.383 24.4008 138.186 24.2353C137.989 24.0698 137.892 23.8583 137.892 23.599C137.892 23.3121 138.035 23.0675 138.324 22.8652C138.611 22.6647 139.028 22.5636 139.577 22.5636C140.152 22.5636 140.594 22.6905 140.902 22.9406C141.173 23.1613 141.351 23.45 141.438 23.8068C141.462 23.9024 141.552 23.9668 141.649 23.9668H143.768C143.904 23.9668 144.007 23.8436 143.987 23.7093C143.9 23.1484 143.694 22.6335 143.365 22.1645C142.986 21.6257 142.471 21.1972 141.818 20.8808C141.165 20.5645 140.426 20.4064 139.599 20.4064C138.686 20.4064 137.91 20.5498 137.272 20.8385C136.634 21.1273 136.15 21.519 135.819 22.0156C135.49 22.5121 135.325 23.0693 135.325 23.6873C135.325 24.4064 135.507 24.9857 135.871 25.4252C136.235 25.8647 136.682 26.1958 137.208 26.4183C137.734 26.6408 138.398 26.8615 139.196 27.0767C139.771 27.2054 140.209 27.3323 140.511 27.4537C140.812 27.5769 141.068 27.7351 141.28 27.9282C141.489 28.1231 141.596 28.3567 141.596 28.6289C141.596 28.9599 141.441 29.2376 141.132 29.4601C140.823 29.6827 140.36 29.7948 139.744 29.7948C139.128 29.7948 138.631 29.6624 138.26 29.3958C137.929 29.1585 137.706 28.8404 137.592 28.4394C137.566 28.3457 137.476 28.285 137.379 28.285H135.271C135.137 28.285 135.034 28.4045 135.052 28.5388C135.128 29.1034 135.334 29.6312 135.668 30.1185C136.055 30.6794 136.594 31.1227 137.289 31.4464C137.984 31.77 138.793 31.9319 139.72 31.9319C140.647 31.9319 141.467 31.7847 142.14 31.4887C142.813 31.1944 143.323 30.7916 143.667 30.2804C144.011 29.7691 144.182 29.1769 144.182 28.5002C144.182 27.7516 143.985 27.1484 143.593 26.6868L143.595 26.6831ZM77.5572 20.4137C75.6317 20.4137 74.508 21.6367 74.131 22.1351C73.8092 21.633 72.8234 20.4137 70.8556 20.4137C69.1434 20.4137 68.1687 21.6514 67.9866 21.9052H67.9057V20.8275C67.9057 20.7061 67.8064 20.6068 67.685 20.6068H65.708C65.5866 20.6068 65.4873 20.7061 65.4873 20.8275V31.5089C65.4873 31.6303 65.5866 31.7296 65.708 31.7296H67.9407C68.062 31.7296 68.1613 31.6303 68.1613 31.5089V25.199C68.1613 23.7811 69.0128 22.7916 70.2321 22.7916C71.4515 22.7916 72.257 23.759 72.257 25.199V31.5089C72.257 31.6303 72.3563 31.7296 72.4777 31.7296H74.7103C74.8317 31.7296 74.931 31.6303 74.931 31.5089V25.199C74.931 23.7811 75.7825 22.7916 77.0018 22.7916C78.2211 22.7916 79.0266 23.7369 79.0266 25.199V31.5089C79.0266 31.6303 79.1259 31.7296 79.2473 31.7296H81.48C81.6013 31.7296 81.7007 31.6303 81.7007 31.5089V25.1328C81.7007 22.2657 80.0731 20.4137 77.5554 20.4137H77.5572ZM112.524 20.4137C110.859 20.4137 109.701 21.3719 109.285 21.9034H109.206V20.8275C109.206 20.7061 109.107 20.6068 108.985 20.6068H107.008C106.887 20.6068 106.788 20.7061 106.788 20.8275V31.507C106.788 31.6284 106.887 31.7277 107.008 31.7277H109.241C109.362 31.7277 109.462 31.6284 109.462 31.507V25.5024C109.462 23.9061 110.499 22.7898 112.025 22.7898C113.552 22.7898 114.547 23.9061 114.547 25.5024V31.507C114.547 31.6284 114.646 31.7277 114.767 31.7277H116.996C117.118 31.7277 117.217 31.6284 117.217 31.507V25.3277C117.217 22.3889 115.332 20.4137 112.527 20.4137H112.524ZM105.248 24.9489V31.5052C105.248 31.6266 105.149 31.7259 105.028 31.7259H103.062C102.94 31.7259 102.841 31.6284 102.841 31.507V30.4404H102.762C102.372 30.9112 101.296 31.9374 99.3429 31.9374C98.245 31.9374 97.2354 31.5898 96.5034 30.9572C95.7807 30.3356 95.3834 29.4951 95.3834 28.5921C95.3834 27.5015 95.9112 26.5783 96.9099 25.9236C97.8864 25.2836 99.2418 24.9452 100.829 24.9452H102.613V24.7558C102.613 23.4887 101.815 22.6997 100.533 22.6997C99.1498 22.6997 98.7232 23.5585 98.6018 23.9558C98.565 24.0735 98.4547 24.1526 98.3315 24.1526H96.2239C96.0473 24.1526 95.9131 23.9926 95.9443 23.8197C96.0381 23.3176 96.3342 22.3392 97.2519 21.5392C98.0979 20.8018 99.24 20.4137 100.555 20.4137C103.405 20.4137 105.246 22.1939 105.246 24.9507L105.248 24.9489ZM102.613 26.7953H100.853C99.0395 26.7953 98.039 27.3636 98.039 28.3953C98.039 29.2615 98.7232 29.7783 99.8689 29.7783C101.434 29.7783 102.613 28.8146 102.613 27.4703V26.7953ZM51.7016 26.6463H49.3476C49.2574 26.6463 49.1784 26.7015 49.1453 26.7843C48.8528 27.4905 48.382 28.0937 47.7328 28.5958C47.0413 29.1291 46.177 29.3958 45.1379 29.3958C44.2901 29.3958 43.5177 29.1806 42.8188 28.7503C42.1218 28.3199 41.5609 27.7314 41.1361 26.9866C40.7112 26.2418 40.4997 25.4105 40.4997 24.4928C40.4997 23.5751 40.7112 22.7457 41.1361 22.0008C41.559 21.256 42.1218 20.6675 42.8188 20.2353C43.5158 19.805 44.2882 19.5898 45.1379 19.5898C45.8349 19.5898 46.4547 19.7241 46.9954 19.9907C47.5361 20.2574 47.9793 20.5994 48.3287 21.0169C48.6432 21.3921 48.8804 21.7912 49.0459 22.216C49.079 22.3024 49.16 22.3595 49.2519 22.3595H51.5986C51.7476 22.3595 51.8524 22.2142 51.8101 22.0707C51.5655 21.2486 51.1682 20.4726 50.6165 19.7425C50.0004 18.9296 49.2207 18.2749 48.2772 17.7838C47.3338 17.291 46.2873 17.0445 45.1379 17.0445C43.8101 17.0445 42.5871 17.3737 41.4653 18.0303C40.3434 18.6868 39.457 19.5861 38.8078 20.7282C38.1586 21.8703 37.8331 23.1264 37.8331 24.4928C37.8331 25.8592 38.1586 27.1153 38.8078 28.2574C39.457 29.3994 40.3434 30.2988 41.4653 30.9553C42.5871 31.6119 43.8119 31.9411 45.1379 31.9411C46.3278 31.9411 47.4018 31.6946 48.36 31.2017C49.3181 30.7089 50.1034 30.0597 50.7195 29.2523C51.2712 28.5296 51.6685 27.7572 51.9131 26.9333C51.9554 26.7898 51.8524 26.6463 51.7034 26.6463H51.7016ZM67.6942 14.6905C70.2947 14.6519 72.4758 12.89 73.1508 10.4955C73.1894 10.3558 73.0827 10.216 72.9374 10.216H70.7379C70.6404 10.216 70.5521 10.2712 70.508 10.3576C69.9802 11.428 68.8786 12.1654 67.6041 12.1654C65.8165 12.1654 64.3673 10.7162 64.3673 8.92865C64.3673 7.14106 65.8165 5.69187 67.6041 5.69187C68.9099 5.69187 70.0354 6.46613 70.5466 7.57877C70.5889 7.66889 70.6791 7.72772 70.7784 7.72772H72.9577C73.1011 7.72772 73.2059 7.59163 73.171 7.45186C73.1508 7.37094 73.1342 7.30843 73.1342 7.30843C72.4354 4.91579 70.2248 3.16682 67.6041 3.16682C64.3931 3.16682 61.7963 5.79301 61.8423 9.01508C61.8882 12.1489 64.5586 14.7365 67.6905 14.6905H67.6942ZM49.48 9.03715C49.4193 5.7691 52.0823 3.10613 55.3503 3.16682C58.4308 3.22383 60.9448 5.73785 61.0018 8.81831C61.0625 12.0882 58.3995 14.7494 55.1315 14.6887C52.051 14.6316 49.537 12.1176 49.48 9.03715ZM52.005 8.82199C51.9462 10.6942 53.4744 12.2224 55.3466 12.1636C57.0423 12.1103 58.4216 10.7291 58.4767 9.03349C58.5356 7.16131 57.0073 5.63302 55.1351 5.69187C53.4395 5.74521 52.0602 7.12636 52.005 8.82199ZM38.5393 14.2601V0.222449C38.5393 0.10107 38.6386 0.00174574 38.76 0.00174574H44.8915C46.4142 -0.00561058 49.2446 1.06658 49.2446 4.47072C49.2446 6.82658 47.7292 8.71164 44.84 8.92681L49.7117 14.1093C49.8441 14.251 49.7448 14.4808 49.5517 14.4808H46.7066C46.6349 14.4808 46.565 14.4496 46.5172 14.3981L41.5076 8.92865H41.3696V14.262C41.3696 14.3834 41.2703 14.4827 41.1489 14.4827H38.7581C38.6367 14.4827 38.5374 14.3834 38.5374 14.262L38.5393 14.2601ZM41.3715 6.68498H43.8211C44.7204 6.68498 45.399 6.4937 45.857 6.11669C46.3131 5.73784 46.5411 5.21556 46.5411 4.54981C46.5411 3.88406 46.3333 3.40589 45.9195 3.03991C45.5039 2.67577 44.9025 2.49003 44.1135 2.49003H41.3715V6.68498ZM96.3912 10.7015C96.3912 14.1167 99.2859 14.6905 100.402 14.6905C100.926 14.6905 101.325 14.582 101.658 14.5084C101.76 14.4863 101.831 14.3962 101.831 14.2933V12.4965C101.831 12.3549 101.701 12.25 101.563 12.2813C100.827 12.4523 99.2142 12.4542 99.2142 10.4974V5.54474H101.612C101.734 5.54474 101.833 5.44544 101.833 5.32406V3.57877C101.833 3.45739 101.734 3.35807 101.612 3.35807H99.2142V0.220608C99.2142 0.0477344 99.0248 -0.0570967 98.8777 0.0330182L96.4997 1.51533C96.4354 1.55579 96.3968 1.62565 96.3968 1.7029V3.35807H94.8666C94.7453 3.35807 94.646 3.45739 94.646 3.57877V5.32406C94.646 5.44544 94.7453 5.54474 94.8666 5.54474H96.3931V10.7015H96.3912ZM74.3002 14.4808H76.6781C76.7995 14.4808 76.8988 14.3815 76.8988 14.2601V10.0431H77.0294L81.0036 14.433C81.0312 14.4643 81.0717 14.4808 81.1121 14.4808H84.0547C84.2478 14.4808 84.3471 14.251 84.2165 14.1093L79.3742 8.92865L83.7733 3.72222C83.8947 3.57878 83.7917 3.35991 83.6041 3.35991H80.8547C80.7793 3.35991 80.7057 3.39301 80.6579 3.45186L77.057 7.75531H76.897V0.222449C76.897 0.0495753 76.7057 -0.057095 76.5604 0.0348591L74.1825 1.52083C74.1181 1.56129 74.0795 1.63118 74.0795 1.70842V14.262C74.0795 14.3834 74.1788 14.4827 74.3002 14.4827V14.4808ZM93.8515 5.88496C94.0593 6.23439 94.7912 7.55853 94.5797 9.24865C94.5485 9.49508 94.5025 9.70843 94.4584 9.8813C94.4326 9.97877 94.3462 10.045 94.245 10.045H85.8331C85.9784 10.5949 86.6036 12.4027 88.9448 12.4027C90.0722 12.4027 90.931 11.9208 91.3282 11.4703C91.3779 11.4151 91.4478 11.382 91.5214 11.382H93.8294C93.9949 11.382 94.1034 11.5567 94.0262 11.7038C93.5223 12.6657 92.5917 13.6238 91.2804 14.2105C90.5705 14.5286 89.7926 14.6905 88.9669 14.6905C87.8928 14.6905 86.8942 14.433 86.0004 13.9291C84.474 13.0684 83.0763 11.3765 83.0763 8.92681C83.08 8.45784 83.1462 6.95899 84.1926 5.54105C84.3342 5.34979 84.943 4.55347 86.0207 3.93738C86.9163 3.42612 87.8984 3.16498 88.9411 3.16498C91.2271 3.16498 92.9595 4.39715 93.8478 5.88496H93.8515ZM91.9627 7.97418C91.8726 7.53831 91.2381 5.43256 88.9466 5.43256C87.3411 5.43256 86.1292 6.48452 85.7889 7.97418H91.9627ZM133.462 23.1227C133.669 23.4721 134.401 24.7962 134.19 26.4863C134.159 26.7328 134.113 26.9461 134.068 27.119C134.043 27.2165 133.956 27.2827 133.855 27.2827H125.443C125.588 27.8326 126.214 29.6404 128.555 29.6404C129.682 29.6404 130.541 29.1585 130.938 28.708C130.988 28.6528 131.058 28.6197 131.131 28.6197H133.439C133.605 28.6197 133.714 28.7944 133.636 28.9415C133.132 29.9034 132.202 30.8615 130.891 31.4482C130.181 31.7663 129.403 31.9282 128.577 31.9282C127.503 31.9282 126.504 31.6707 125.611 31.1668C124.084 30.3061 122.686 28.6142 122.686 26.1645C122.69 25.6955 122.756 24.1967 123.803 22.7788C123.944 22.5875 124.553 21.7912 125.631 21.1751C126.526 20.6638 127.508 20.4027 128.551 20.4027C130.837 20.4027 132.57 21.6349 133.458 23.1227H133.462ZM131.573 25.2119C131.483 24.776 130.848 22.6703 128.557 22.6703C126.951 22.6703 125.739 23.7222 125.399 25.2119H131.573Z" fill="#DE3341"/>
</svg>
