<?xml version="1.0" encoding="UTF-8"?><svg id="a" xmlns="http://www.w3.org/2000/svg" viewBox="0 0 576.52 148.74"><defs><style>.b{fill:#00b0ed;}.c{fill:#183a60;}.d{fill:#ffc001;}</style></defs><g><polygon class="b" points="97.44 74.37 112.91 58.91 99.29 45.29 83.72 60.86 70.22 74.37 99.33 103.48 112.94 89.87 97.44 74.37"/><polygon class="d" points="42.88 74.26 13.69 45.07 .07 58.68 15.66 74.26 0 89.92 13.61 103.53 29.36 87.78 29.36 87.78 42.88 74.26"/><g><g><rect class="b" x="79.23" y="13.45" width="3.64" height="3.64" transform="translate(127.57 83.37) rotate(-135)"/><rect class="b" x="87.07" y="10.24" width="6.42" height="6.42" transform="translate(144.6 86.8) rotate(-135)"/><rect class="b" x="95.89" y="10.87" width="5.15" height="5.15" transform="translate(158.58 92.59) rotate(-135)"/><rect class="b" x="96.78" y="5.74" width="3.37" height="3.37" transform="translate(162.84 82.29) rotate(-135)"/><rect class="b" x="88.38" y=".79" width="3.79" height="3.79" transform="translate(152.21 68.41) rotate(-135)"/></g><polygon class="b" points="94.81 22.55 90.28 18.01 85.74 22.55 81.04 17.85 76.5 22.39 72.13 18.01 65.94 24.2 65.95 24.21 57.9 32.27 57.88 32.25 56.6 33.53 40.91 17.84 27.3 31.45 42.99 47.14 42.99 47.14 56.6 60.76 71.49 45.87 71.49 45.87 90.28 27.08 94.81 22.55"/></g><g><g><rect class="d" x="30.34" y="131.66" width="3.64" height="3.64" transform="translate(103.8 16.36) rotate(45)"/><rect class="d" x="19.72" y="132.08" width="6.42" height="6.42" transform="translate(102.38 23.41) rotate(45)"/><rect class="d" x="12.16" y="132.71" width="5.15" height="5.15" transform="translate(99.98 29.2) rotate(45)"/><rect class="d" x="13.06" y="139.63" width="3.37" height="3.37" transform="translate(104.25 30.97) rotate(45)"/><rect class="d" x="21.03" y="144.16" width="3.79" height="3.79" transform="translate(109.99 26.57) rotate(45)"/></g><polygon class="d" points="70.22 101.6 70.22 101.6 56.6 87.98 41.71 102.87 41.71 102.87 22.93 121.66 18.39 126.19 22.93 130.73 27.47 126.19 32.17 130.89 36.7 126.36 41.08 130.73 47.27 124.54 47.25 124.53 55.31 116.47 55.32 116.49 56.6 115.21 84.19 142.79 97.8 129.18 70.22 101.6"/></g></g><g><path class="c" d="M201.3,69.36l-26.74,26.17,27.66,28.08h-23.87l-16.43-17.87-16.3,17.87h-23.49l27.53-28.08-26.49-26.17h23.11l15.77,16.6,16.28-16.6h22.98Z"/><path class="c" d="M224.98,69.36v7.4h.25c7.02-7.28,13.15-8.81,20.94-8.81,18.13,0,32.55,9.57,32.55,28.59,0,17.49-13.66,29.11-31.28,29.11-10.34,0-18-3.32-21.57-8.17h-.26v27.7h-18.38V69.36h17.74Zm17.23,43.15c9.32,0,17.36-5.36,17.36-15.7s-8.04-15.7-17.36-15.7-17.23,5.36-17.23,15.7,8.04,15.7,17.23,15.7Z"/><path class="c" d="M307.82,125.66c-14.68,0-24.89-4.98-24.89-17.62s12-15.96,23.23-16.72l19.53-1.28c5.62-.38,7.53-1.4,7.53-5.74s-3.7-6.38-14.42-6.38c-7.79,0-11.87,.51-14.55,8.04h-17.74c2.17-16.72,18.13-18.64,33.19-18.64,26.3,0,31.91,8.3,31.91,18.38v37.91h-17.49v-5.74c-6.38,6-18,7.79-26.3,7.79Zm15.19-26.17l-10.72,.89c-6.51,.51-9.7,2.3-9.7,7.15s4.72,7.53,11.62,7.53c9.32,0,19.66-4.34,19.66-13.4v-4.47c-3.45,1.66-7.28,2.04-10.85,2.3Z"/><path class="c" d="M395.9,81.75c-8.55,0-15.83,4.08-15.83,15.7v26.17h-18.38v-54.25h17.74v7.91h.25c3.32-4.6,12.13-9.32,22.85-9.32,9.57,0,24.13,3.57,24.13,19.53v36.13h-18.38v-30.76c0-7.53-4.08-11.11-12.38-11.11Z"/><path class="c" d="M465.6,114.55c8.42,0,13.28-1.92,13.28-5.87,0-3.06-1.53-4.34-10.47-5.49l-16.72-2.3c-11.62-1.53-18.38-4.98-18.38-15.32,0-14.68,15.45-18.25,30.64-18.25,25.91,0,31.91,8.17,33.19,18.38h-20.3c-1.02-5.62-7.15-7.28-12.51-7.28-4.72,0-12,.51-12,5.87,0,2.43,1.4,4.21,9.32,4.98l12.76,1.4c18.77,1.92,24.77,7.28,24.77,16.6,0,16.08-18.64,18.38-34.59,18.38-21.19,0-32.04-6-32.93-18.89h20.3c.89,4.72,4.21,7.79,13.66,7.79Z"/><path class="c" d="M540.52,125.66c-22.21,0-37.02-8.68-37.02-29.11s14.81-29.23,37.02-29.23c24.25,0,36,11.87,36,32.3v1.66h-54v.13c0,5.23,5.49,13.15,18,13.15,7.4,0,12.64-2.43,15.32-7.15h19.66c-5.36,12.89-18.13,18.25-34.98,18.25Zm16.98-35.1c0-2.94-3.96-12.13-17.36-12.13-14.55,0-17.62,10.72-17.62,12.13v.13h34.98v-.13Z"/></g></svg>